<svg height="468pt" viewBox="-64 0 468 468" width="468pt" xmlns="http://www.w3.org/2000/svg"><path d="m340 84v344c.007812 22.09375-17.90625 40.007812-40 40h-260c-22.09375.007812-40.0078125-17.90625-40-40v-344c-.0078125-22.09375 17.90625-40.007812 40-40h100v26h60v-26h100c22.09375-.007812 40.007812 17.90625 40 40zm-239.398438 238.601562h138.796876c0-41.601562-31.097657-72.203124-69.398438-72.203124s-69.398438 30.601562-69.398438 72.203124zm111-153c-.058593-22.964843-18.707031-41.539062-41.667968-41.5-22.960938.035157-41.550782 18.667969-41.535156 41.632813.019531 22.960937 18.640624 41.566406 41.601562 41.566406 11.054688.007813 21.652344-4.386719 29.460938-12.210937 7.804687-7.824219 12.175781-18.4375 12.140624-29.488282zm0 0" fill="#e48e66"/><path d="m170 70h-30v-26h-100c-22.09375-.007812-40.0078125 17.90625-40 40v344c-.0078125 22.09375 17.90625 40.007812 40 40h130zm0 0" fill="#d18162"/><path d="m239.398438 322.601562h-138.796876c0-41.601562 31.097657-72.203124 69.398438-72.203124s69.398438 30.601562 69.398438 72.203124zm0 0" fill="#f8ec7d"/><path d="m170 128c23.015625-.027344 41.691406 18.617188 41.699219 41.632812.011719 23.015626-18.648438 41.675782-41.664063 41.667969-23.015625-.011719-41.664062-18.683593-41.636718-41.699219-.007813-11.039062 4.375-21.625 12.175781-29.425781 7.804687-7.804687 18.390625-12.183593 29.425781-12.175781zm0 0" fill="#f8ec7d"/><g fill="#63316d"><path d="m278.199219 424h-216.398438c-5.523437 0-10-4.476562-10-10s4.476563-10 10-10h216.5c5.523438.027344 9.976563 4.527344 9.949219 10.050781-.027344 5.523438-4.527344 9.976563-10.050781 9.949219zm0 0"/><path d="m228.199219 380h-116.398438c-5.523437 0-10-4.476562-10-10s4.476563-10 10-10h116.5c5.523438.027344 9.976563 4.527344 9.949219 10.050781-.027344 5.523438-4.527344 9.976563-10.050781 9.949219zm0 0"/><path d="m200 80h-60c-5.515625-.015625-9.984375-4.484375-10-10v-60c.015625-5.515625 4.484375-9.984375 10-10h60c5.515625.015625 9.984375 4.484375 10 10v60c-.015625 5.515625-4.484375 9.984375-10 10zm-50-20h40v-40h-40zm0 0"/></g></svg>